<svg width="237" height="237" viewBox="0 0 237 237" fill="none" xmlns="http://www.w3.org/2000/svg">
<path d="M183.843 80.9898L183.924 80.7701L183.707 80.6911L183.749 80.58L185.262 81.1379L185.312 81.1997L184.993 81.0812L184.885 81.3749L183.843 80.9898ZM180.399 79.6221L180.401 79.6197L180.438 79.632L180.399 79.6221ZM178.051 80.1356C178.051 80.1356 177.891 81.0688 177.812 81.449C177.733 81.8267 175.466 82.671 175.466 82.671C175.466 82.671 174.854 81.5626 174.452 81.133C174.395 81.0713 174.348 81.017 174.306 80.9627C174.427 80.9404 174.546 80.9133 174.642 80.8911C174.973 80.817 175.427 80.6491 175.753 80.4368L175.802 80.3874L176.042 80.4763C176.328 80.5825 176.659 80.4146 176.841 80.0986L177.017 80.1628L177.177 79.7332L176.96 80.3158L177.441 80.4936L177.664 79.8937L178.342 80.1134C178.175 80.1233 178.051 80.1356 178.051 80.1356ZM174.259 78.8445C174.242 78.8988 174.222 78.9728 174.202 79.0864C174.193 79.1506 174.16 79.2197 174.116 79.2962L174.096 79.2814C174.005 79.1358 173.388 79.2098 173.388 79.2098L173.128 79.2469C172.988 79.079 172.845 78.9037 172.696 78.7284C173.304 78.7729 173.847 78.8124 174.259 78.8445ZM176.735 80.0517C176.577 80.3134 176.311 80.4516 176.081 80.3677L175.869 80.2887C175.958 80.0566 175.753 79.7431 175.753 79.7431C175.753 79.7431 175.627 79.6616 175.457 79.5555L175.496 79.4222L175.526 79.3604C175.595 79.2913 175.637 79.2518 175.637 79.2518L175.644 79.2345L175.871 79.3111C175.871 79.511 175.906 79.8295 176.145 80.0147C176.145 80.0147 176.14 79.6764 176.227 79.4246L176.861 79.632L176.846 79.7456L176.735 80.0517ZM188.931 81.9551L188.77 81.8983L188.269 82.3674L188.247 82.4316L186.003 81.6021L186.05 81.4737L185.81 81.3848C185.657 81.254 185.472 81.0565 185.433 80.8269L183.631 80.1603L183.418 80.7331L180.631 79.7036L180.52 79.6616L181.423 79.9949L181.574 79.59L181.498 79.7974L181.643 79.8492L181.828 79.3432L181.683 79.2913L181.725 79.1827L180.053 78.5655L179.846 79.1308L179.997 78.721L179.888 78.6815L179.811 78.8889L179.964 78.4766L178.989 78.1187L178.95 78.2273L178.483 78.052L178.446 78.1483L175.656 77.1188L175.116 77.6644L175.044 77.6372L174.97 77.7014C174.301 77.5237 172.901 77.141 172.721 76.9781C172.546 76.8201 172.496 76.5905 172.487 76.4819L172.511 76.4843C172.795 76.4967 172.961 76.1288 173.02 75.9141C173.082 75.6968 173.333 74.9266 173.333 74.9266C173.333 74.9266 173.788 74.9043 173.726 74.692C173.388 73.5021 173.563 73.0725 173.563 73.0725C173.563 73.0725 174.163 73.0281 174.301 72.7837C174.397 72.6133 174.259 72.4726 174.138 72.3245C174.237 72.2924 174.326 72.2529 174.388 72.2011C174.595 72.0233 174.676 71.0432 174.543 70.8037C174.407 70.5667 174.138 70.2014 173.844 70.1693C173.751 70.1594 173.602 70.2162 173.444 70.2977C173.272 70.1026 172.642 69.4385 171.914 69.1694C171.057 68.851 169.46 68.8362 168.697 70.0063C168.048 71.0037 168.208 72.406 168.208 72.406C168.208 72.406 168.156 72.8824 168.033 73.1663L167.996 73.2602C167.243 72.6133 166.389 71.9517 166.162 72.0628C165.73 72.2727 165.307 72.0208 164.959 72.4405C164.873 72.5442 164.685 72.7294 164.451 72.9491C164.1 72.8158 163.619 72.7022 163.17 72.8528C163.016 72.9047 162.854 72.9837 162.688 73.0799C162.207 72.485 161.409 71.8974 160.39 72.1048C158.555 72.48 156.864 76.5831 156.102 77.4323C155.341 78.2791 154.309 79.59 154.655 80.0566C154.867 80.3504 155.534 80.859 156.171 81.2243C156.282 81.8465 156.529 82.4167 156.751 82.8315C156.667 83.108 156.605 83.3672 156.605 83.5252L157.059 84.0288C157.042 84.1152 157.027 84.2066 157.015 84.3053C156.692 84.6485 155.981 85.5076 156.102 86.3248C156.203 86.9987 156.872 87.2802 157.341 87.3987C157.514 87.9616 157.751 88.5318 157.751 88.5318L158.886 88.5343C158.886 88.5343 158.886 89.5465 160.047 89.5465C160.563 89.6922 162.081 89.865 162.081 89.865C162.081 89.865 161.819 91.2573 162.187 92.272C162.071 93.9285 162.72 96.7009 162.733 97.133C162.745 97.6465 162.535 98.3056 162.535 98.3056C161.869 98.7302 160.654 100.135 159.97 101.073C159.286 102.014 158.854 101.979 158.269 102.31C157.686 102.641 157.104 103.078 156.726 103.552C156.348 104.023 156.511 104.697 155.904 105.154C155.415 105.522 155.247 106.43 155.2 106.768C154.517 107.847 153.751 109.062 153.169 110.153C152.806 110.837 153.07 111.17 154.368 111.513C154.603 111.575 156.166 111.666 156.353 111.755C156.541 111.844 158.355 111.987 158.355 111.987C158.355 111.987 158.936 111.252 158.323 110.839C157.714 110.427 156.615 110.346 156.504 109.711C156.447 109.403 157 108.704 157.509 107.983L157.605 108.003C158.022 108.072 158.61 107.561 159.363 106.973C160.118 106.383 161.676 106.645 162.068 105.875C162.463 105.105 167.129 101.671 167.613 100.893C167.942 100.357 168.092 99.0388 168.134 98.0711C168.49 98.629 168.833 99.1376 169.038 99.3869C169.038 99.3869 169.211 100.244 168.937 101.157C168.665 102.07 168.035 104.49 167.66 106.038C167.552 106.485 167.517 106.865 167.51 107.215C167.253 108.119 167.092 108.81 167.157 108.921L167.206 109.008C166.92 109.711 166.902 109.731 166.567 110.807C166.337 111.546 166.132 113.086 166.522 113.163C166.522 113.163 167.12 113.567 167.349 113.641C167.579 113.713 169.018 113.592 169.211 113.664C169.406 113.735 171.228 113.733 171.228 113.733C171.228 113.733 171.744 112.953 171.104 112.592C170.46 112.229 169.336 112.076 169.107 111.474C169.05 111.323 169.132 111.042 169.272 110.696C169.369 110.696 169.694 110.681 169.991 110.44C170.344 110.153 172.919 104.334 172.938 104.292C172.98 104.231 173.02 104.176 173.054 104.134C173.622 103.436 174.163 101.959 174.239 100.972C174.313 100.036 173.168 96.9848 172.546 95.116C173.178 94.9086 173.694 94.7111 173.8 94.6074C174.096 94.3112 174.548 93.6199 174.321 93.1287C174.096 92.6374 173.602 91.6499 173.306 91.2549C173.012 90.8623 173.928 90.6155 173.077 89.8526C173.119 89.7366 173.168 89.4872 173.215 89.191H173.217C173.217 89.191 173.867 89.6378 174.114 90.1267C174.36 90.613 175.022 90.3242 175.294 89.191C175.565 88.0554 174.945 87.9739 174.921 87.969C174.913 87.969 174.755 87.7863 174.528 87.5172L174.644 87.453C175.034 87.1839 175.252 86.0582 175.286 85.636C175.805 85.9347 176.079 86.1199 176.434 85.7076C176.585 85.5348 177.678 84.3029 177.812 84.0214C177.945 83.74 178.239 83.108 178.579 82.7599C178.918 82.4118 178.802 82.4069 178.73 82.1896C178.658 81.9724 179.715 81.212 179.858 80.938C179.93 80.7997 179.866 80.6862 179.764 80.5751L180.056 80.6689L180.438 79.632L180.103 80.538L180.295 80.6072L180.248 80.7405L183.265 81.5552L183.344 81.3379L188.334 83.1821L188.385 83.0389L183.722 81.3157L183.761 81.2095L184.803 81.5947L185.86 81.9872L185.909 81.8588L187.943 82.6118L187.857 82.8414L188.514 83.0858L188.6 82.8537L188.793 82.9253L188.887 82.6686L188.694 82.597L188.931 81.9551Z" fill="#040606"/>
<path d="M183.598 79.8764L181.868 79.237L181.616 79.9184L183.312 80.543L183.468 80.6022L183.631 80.1603L183.51 80.1159L183.598 79.8764Z" fill="#040606"/>
<mask id="mask0_2_312" style="mask-type:luminance" maskUnits="userSpaceOnUse" x="171" y="91" width="31" height="28">
<path d="M171.904 91.008H201.608V118.51H171.904V91.008Z" fill="white"/>
</mask>
<g mask="url(#mask0_2_312)">
<path d="M196.861 99.8511L196.949 99.7005L196.752 99.6264L196.796 99.5499L198.189 100.058L198.231 100.105L197.937 99.9992L197.821 100.202L196.861 99.8511ZM188.961 100.804C188.961 100.804 188.41 100.073 188.077 99.8066C187.869 99.6387 187.783 99.5005 187.748 99.4215C187.951 99.3425 188.178 99.2388 188.437 99.0981C188.595 99.0117 188.983 99.1203 189.225 99.066C189.333 99.0388 189.459 98.9993 189.588 98.95C189.844 99.0314 190.148 98.9352 190.331 98.7278L190.491 98.7846L190.664 98.4858L190.432 98.8907L190.55 98.9352C190.543 99.1623 190.531 99.5079 190.518 99.6881C190.504 99.9671 188.961 100.804 188.961 100.804ZM193.733 98.6364L193.701 98.6266V98.6241L193.733 98.6364ZM185.889 97.37C186.006 97.3848 186.119 97.3996 186.233 97.4144C186.144 97.4119 186.045 97.4342 185.966 97.4564L185.889 97.37ZM187.904 97.8119L187.85 97.9131L186.586 98.0958C186.531 97.8514 186.475 97.6094 186.423 97.5107C186.398 97.4613 186.356 97.4366 186.302 97.4243C186.951 97.5082 187.539 97.5847 187.971 97.6415C187.951 97.6786 187.929 97.7304 187.904 97.8119ZM190.232 98.6858C190.101 98.829 189.906 98.908 189.726 98.8932C189.835 98.8463 189.938 98.7944 190.03 98.7352C190.205 98.6192 190.116 98.392 190.059 98.2883L190.373 98.3896L190.353 98.471L190.232 98.6858ZM201.591 100.903L201.443 100.848L200.946 101.152L200.922 101.199L198.858 100.444L198.91 100.355L198.687 100.273C198.552 100.17 198.389 100.012 198.364 99.8437L196.705 99.2388L196.475 99.6387L193.91 98.7006L193.841 98.6759L194.641 98.9672L194.967 98.4019L193.432 97.839L193.157 98.3155L193.088 98.2883L193.157 98.313L193.367 97.9477L193.269 97.9106L193.059 98.2785L193.35 97.7699L192.454 97.4416L192.412 97.5181L191.98 97.3601L191.94 97.4267L189.378 96.4911L188.837 96.8466L188.771 96.8219L188.701 96.8639C188.264 96.7404 187.494 96.5207 187.02 96.3553C187.072 96.1702 187.24 95.6641 187.24 95.6641C187.24 95.6641 187.566 95.6492 187.524 95.4937C187.277 94.6321 187.405 94.3211 187.405 94.3211C187.405 94.3211 187.84 94.289 187.941 94.1112C188.01 93.9902 187.911 93.8866 187.823 93.7779C187.894 93.7557 187.958 93.7261 188.003 93.6891C188.153 93.5607 188.213 92.8497 188.114 92.6769C188.018 92.5041 187.823 92.2399 187.608 92.2177C187.539 92.2078 187.435 92.2498 187.319 92.309C187.195 92.1683 186.739 91.6869 186.21 91.4919C185.588 91.2623 184.43 91.2499 183.877 92.0992C183.406 92.8225 183.522 93.8372 183.522 93.8372C183.522 93.8372 183.485 94.1828 183.396 94.3877L183.369 94.4568C182.823 93.9878 182.204 93.5088 182.038 93.5903C181.727 93.7434 181.421 93.5582 181.169 93.8643C181.105 93.9384 180.969 94.0717 180.799 94.2322C180.547 94.1334 180.197 94.052 179.873 94.1631C179.762 94.2001 179.641 94.2569 179.523 94.326C179.174 93.8964 178.594 93.4693 177.856 93.6199C176.526 93.8915 175.301 96.8663 174.748 97.4811C174.195 98.0958 173.449 99.0462 173.696 99.3845C173.854 99.5968 174.333 99.9646 174.797 100.231C174.879 100.683 175.057 101.093 175.22 101.396C175.158 101.596 175.111 101.784 175.111 101.898L175.442 102.263C175.429 102.325 175.417 102.391 175.41 102.463C175.175 102.712 174.659 103.334 174.748 103.929C174.822 104.416 175.306 104.621 175.647 104.705C175.773 105.114 175.943 105.527 175.943 105.527L176.767 105.529C176.767 105.529 176.767 106.26 177.607 106.26C177.982 106.369 179.083 106.494 179.083 106.494C179.083 106.494 178.972 107.084 179.039 107.689C178.814 108.413 178.804 109.193 178.575 110.082C178.333 111.022 177.965 113.345 177.757 113.175C177.044 112.58 175.496 112.728 175.496 112.728C174.741 112.452 174.634 113.14 174.427 112.901C174.222 112.659 172.941 112.042 172.805 112.654C172.664 113.269 171.936 115.849 172.21 116.673C172.487 117.495 172.862 116.913 173.079 116.33C173.385 115.503 174.143 114.577 174.143 114.577C174.681 114.851 177.913 116.945 178.824 117.083C179.732 117.221 180.29 117.083 180.29 117.083C181.226 116.604 181.004 115.883 181.278 115.471C181.554 115.059 182.172 112.896 182.379 112.415C182.584 111.933 183.065 111.644 183.302 111.232C183.534 110.822 183.49 110.664 183.897 110.067C183.998 109.921 184.097 109.756 184.186 109.593C184.685 109.748 185.808 110.089 185.986 110.082C186.144 110.072 186.842 109.946 187.289 109.793C187.739 109.877 188.141 109.951 188.417 110.005C188.432 110.328 188.479 110.726 188.301 111.076C188.022 111.625 188.314 111.666 188.306 112.052L188.301 112.14C188.242 112.612 187.329 114.372 187.432 114.733C187.474 114.883 187.526 115.029 187.573 115.155C187.46 115.404 187.331 115.639 187.188 115.841C186.418 116.922 186.679 117.873 186.679 117.873L189.222 118.127C189.222 118.127 191.071 118.51 191.365 118.127C191.656 117.747 191.834 117.429 191.365 117.342C190.894 117.256 190.168 117.048 190.168 117.048C190.168 117.048 189.548 116.35 189.304 116.031C189.21 115.91 189.205 115.713 189.232 115.518C189.346 115.503 189.454 115.483 189.556 115.454C190.289 115.249 190.346 114.012 190.242 113.807C190.141 113.6 190.597 112.363 191.052 112.089C191.508 111.817 192.224 109.808 192.224 109.808C192.39 109.472 192.829 109.106 192.864 108.642C192.898 108.176 192.244 107.321 191.847 107.218C191.706 107.183 191.587 107.21 191.491 107.26C191.35 107.198 191.192 107.131 191.02 107.06C190.627 106.529 187.657 105.097 187.642 105.097C187.637 105.095 187.568 104.971 187.467 104.791C187.657 104.838 187.981 104.89 188.188 104.747C188.499 104.532 188.659 103.567 188.659 103.352C188.659 103.352 188.627 103.063 188.556 102.744L188.64 102.777C189.395 102.986 189.681 103.332 189.97 102.885C190.059 102.744 190.716 101.75 190.783 101.535C190.849 101.317 190.997 100.834 191.207 100.55C191.412 100.266 191.328 100.271 191.257 100.123C191.182 99.9745 191.864 99.3203 191.935 99.1104C191.97 99.0117 191.921 98.9401 191.849 98.8759L193.318 99.3598L193.372 99.2684L193.55 99.3326L193.496 99.424L196.288 100.221L196.374 100.071L200.964 101.747L201.02 101.646L196.434 99.9696L196.73 100.078L196.774 100.007L197.73 100.355L198.705 100.713L198.754 100.624L200.628 101.305L200.534 101.468L201.139 101.688L201.233 101.527L201.411 101.592L201.509 101.414L201.334 101.35L201.591 100.903Z" fill="#040606"/>
</g>
<path d="M196.693 99.0314L195.1 98.4488L195.014 98.5994L195.056 98.5253L194.925 98.476L194.723 98.829L194.854 98.8759L194.826 98.9228L196.414 99.503L196.53 99.5449L196.705 99.2388L196.596 99.1968L196.693 99.0314Z" fill="#040606"/>
<mask id="mask1_2_312" style="mask-type:luminance" maskUnits="userSpaceOnUse" x="32" y="75" width="32" height="42">
<path d="M32.2888 75.208H63.832V116.288H32.2888V75.208Z" fill="white"/>
</mask>
<g mask="url(#mask1_2_312)">
<path d="M33.6367 84.2708H36.6412V84.4609H39.7419V84.6139H33.6367V84.2708ZM43.3636 84.0042H40.4159V83.8091H43.1488V83.7104H43.3636V84.0042ZM44.8177 84.0042H44.872V84.0091L44.8177 84.0042ZM46.7927 85.6163L48.2962 85.6755V86.5642H49.0072V86.3396H49.2664C49.3083 86.5766 49.412 86.784 49.5528 86.937C49.296 87.332 49.0713 87.7394 49.0713 87.7394C49.0713 87.7394 47.0544 86.9889 46.9853 86.6531C46.9334 86.4013 46.8371 85.8607 46.7927 85.6163ZM49.6441 86.8012C49.5404 86.6778 49.4639 86.5173 49.4293 86.3322V86.0483C49.5626 86.0952 49.691 86.1347 49.8021 86.1618C49.8885 86.1791 49.9922 86.2038 50.1008 86.2236C50.0638 86.2705 50.0218 86.3223 49.9724 86.3742C49.8712 86.4803 49.7577 86.6358 49.6441 86.8012ZM40.0629 83.6462V83.8091H39.7419V84.135H38.2039V83.703H37.7348L37.8262 83.6462H40.0629ZM32.3826 83.8931V84.2708H32.6665V84.6139H32.8566V84.8263H40.2209V85.1447L44.5338 85.5348V85.3398H44.8177V85.5348L45.5287 85.5644L45.5089 85.5866C45.383 85.8014 45.0423 85.9594 45.1658 86.2013C45.2917 86.4433 46.2323 87.1197 46.1681 87.3123C46.1039 87.5048 46.0002 87.5122 46.3014 87.8208C46.6051 88.1294 46.8668 88.6923 46.9853 88.9417C47.1038 89.191 48.074 90.2871 48.2098 90.4402C48.6368 90.9339 48.9257 90.4649 49.8046 90.0798C49.8046 90.3414 51.0093 93.1213 51.0093 93.1213C51.0093 93.1213 51.0414 93.5138 51.1179 93.8569C50.8168 94.1507 50.8266 94.3532 50.8933 94.5186C50.8192 94.7235 50.9032 94.8741 50.9723 95.0074C50.718 95.3481 50.3008 96.185 50.1082 96.6047C50.0465 96.7404 50.049 96.896 50.0835 97.0515C49.9873 97.2762 50.044 97.5403 50.1576 97.7822C49.6836 99.3647 49.2096 101.113 48.9948 102.105C48.9133 102.122 48.8245 102.174 48.7405 102.295C48.4245 102.732 48.1727 104.838 48.2567 105.09C48.3258 105.297 48.7381 105.781 49.1355 105.909C49.4713 106.781 49.9798 108.092 49.9798 109.178C49.9798 110 50.4415 110.578 50.7797 111.175C51.1155 111.775 51.0612 111.881 51.3599 112.553C51.6611 113.227 51.3722 113.79 51.3722 113.79C51.2982 114.612 49.7651 114.881 49.2935 115.202C48.9973 115.402 48.9208 115.505 49.096 115.809C49.2713 116.115 52.1375 115.891 52.1375 115.891C52.1375 115.891 52.6535 115.641 52.7276 115.641C52.8016 115.641 53.2534 115.886 53.2534 115.886C53.7867 115.886 53.8484 115.762 53.957 115.36C54.0632 114.957 53.9768 114.286 53.7793 113.844C53.5052 113.232 53.2855 113.044 53.283 111.775C53.2806 110.504 53.2534 107.588 53.2534 107.588C53.2534 107.588 52.7226 106.467 52.6189 106.245C52.5103 106.02 52.7967 105.571 52.6189 105.272C52.4363 104.974 52.4683 104.749 52.4683 104.749L52.6189 104.078C52.577 103.85 52.5251 103.542 52.4733 103.248C52.6115 102.71 52.9646 101.673 53.8262 100.362C54.0286 100.058 54.2261 99.735 54.4162 99.4092C54.6063 99.8535 54.8359 100.384 55.0581 100.866C55.0581 100.866 56.0233 101.917 56.2603 102.591C56.2603 102.591 56.1073 103.354 56.2603 103.648C56.4134 103.939 56.4751 104.781 56.9812 105.114C57.4848 105.453 57.7169 105.939 57.7169 105.939C57.7169 105.939 58.6871 108.149 58.7711 108.4C58.855 108.655 60.3733 111.264 60.5412 111.77C60.709 112.274 60.8152 113.58 60.709 113.832C60.6004 114.083 60.3486 114.209 60.3486 114.209L58.4156 115.222C58.4156 115.222 57.8897 116.046 58.4156 115.97C58.9389 115.895 63.1087 115.955 63.1087 115.955C63.1087 115.955 63.4469 116.132 63.279 115.291C63.1087 114.449 62.2841 112.405 62.5186 112.148C62.9828 111.642 62.0199 107.529 61.8471 106.694C61.6718 105.86 60.6251 104.107 60.6251 104.107C60.6251 104.107 60.082 103.265 60.0573 103.011C60.0351 102.759 60.0573 102.206 60.0573 101.833C60.0573 101.535 60.0449 101.231 60.0252 100.927C60.1708 100.893 60.3091 100.831 60.435 100.723C60.7633 100.434 60.4004 98.6661 60.0301 97.1972L60.0351 97.1897C60.0993 97.0589 59.9684 96.7948 59.9684 96.7948C60.0548 96.7503 60.2671 96.5331 60.2671 96.5331C60.2671 96.5331 60.4498 96.3133 60.4325 95.943C60.4103 95.3308 60.2424 94.2766 60.2424 94.2766C60.1511 94.1902 60.0227 94.1507 59.9018 94.1384C59.8845 94.0248 59.8721 93.9532 59.8721 93.9532C59.7586 93.8421 59.5858 93.8125 59.4401 93.81C59.1562 92.9435 58.9463 92.8324 58.9463 92.8324C58.9463 92.8324 58.9044 92.8349 58.8328 92.8423C58.7069 92.6053 58.6254 92.5633 58.6254 92.5633L58.5983 92.5658C58.8303 90.0699 58.9315 86.3445 58.6205 85.4064C58.0946 83.819 57.0183 82.9722 56.3468 82.5772C56.2998 82.3723 56.2529 82.1822 56.206 82.0168L56.29 81.9674C56.29 81.9674 56.2208 81.8909 56.1418 81.7946C56.0554 81.5083 55.974 81.3354 55.9123 81.3354C55.7987 81.3354 55.6456 81.37 55.4679 81.4293C55.3913 81.3675 55.2309 81.2318 55.1642 81.0663C55.1346 80.9923 55.1124 80.9133 55.0926 80.8343C55.1667 80.7824 55.1321 80.7306 55.1124 80.6565C55.0951 80.5825 55.0877 80.4171 55.1272 80.2912C55.1593 80.1973 55.1864 79.9653 55.1988 79.8567C55.3148 79.8468 55.4654 79.8295 55.5543 79.8023C55.7148 79.7505 55.7913 79.5431 55.6777 79.2938C55.5666 79.042 55.5222 78.6173 55.5222 78.6173C55.5222 78.6173 55.6629 77.3706 55.0852 76.4843C54.4088 75.4425 52.9893 75.4573 52.2264 75.7413C51.5796 75.9807 51.0192 76.5708 50.8661 76.7436C50.7279 76.6695 50.5946 76.6201 50.5131 76.6275C50.2514 76.6572 50.0095 76.983 49.891 77.1953C49.7725 77.4052 49.8441 78.2767 50.0292 78.4347C50.0835 78.4816 50.1625 78.5161 50.2514 78.5433C50.1403 78.6766 50.0193 78.8025 50.1033 78.9531C50.2267 79.1703 50.7624 79.2098 50.7624 79.2098C50.7624 79.2098 50.918 79.59 50.6168 80.6491C50.5625 80.8368 50.9649 80.8565 50.9649 80.8565C50.9649 80.8565 51.1895 81.5428 51.2438 81.7354C51.2982 81.9279 51.4438 82.2538 51.6981 82.2415C51.7376 82.2415 51.8043 82.2267 51.8857 82.2069C51.9055 82.2563 51.9326 82.3032 51.9598 82.3155C52.0166 82.3427 52.4486 82.1625 52.456 82.1353V82.1057C52.5375 82.1032 52.6041 82.1106 52.6412 82.1403C52.7769 82.2489 52.8337 82.5846 52.8288 82.7624C52.7597 82.8043 52.7202 82.829 52.7202 82.829C52.7202 82.829 52.6461 82.9154 52.5276 83.0537C52.3795 83.0117 52.177 82.9722 52.0536 83.0339H48.1184V82.8932H47.4272V82.7328H45.9879V83.0339H45.8299V82.8043H43.3636V82.9648H43.1488V82.8043H40.5937V83.1598H37.7546C37.5941 83.4339 37.2608 83.6067 37.0016 83.703H36.6412V83.8931H33.3306V83.7968L32.9035 82.9451H32.6665V83.8931H32.3826Z" fill="#040606"/>
</g>
<path d="M67.1722 100.639C67.0957 100.621 67.0167 100.602 66.9377 100.574L67.1648 100.246L67.2216 100.32C67.2043 100.421 67.1895 100.53 67.1722 100.639ZM64.1653 102.221L63.8987 102.843L64.2171 103.063L65.2688 101.861C65.3058 101.863 65.3478 101.848 65.4021 101.819C65.5009 101.769 65.5527 101.683 65.5527 101.683L65.5108 101.582L65.5898 101.493C65.7478 101.53 66.0119 101.587 66.1131 101.569C66.2193 101.552 65.9082 101.429 65.7107 101.355L65.8712 101.174C65.9477 101.239 66.0144 101.303 66.0144 101.303C66.0144 101.303 66.1897 101.369 66.2687 101.443C66.3452 101.52 66.439 101.32 66.5155 101.303C66.5649 101.29 66.3304 101.019 66.165 100.836L66.3304 100.646L66.3699 100.648C66.5624 100.747 66.8167 100.844 67.1327 100.893C66.9056 102.448 66.6661 104.47 66.597 104.631C66.4884 104.882 66.634 105.596 66.597 105.845C66.56 106.095 66.5254 107.164 66.597 107.378C66.6661 107.593 66.7056 107.771 66.7402 107.914C66.7748 108.057 66.56 110.393 66.597 110.644C66.6316 110.894 66.8834 110.965 66.8834 110.965C66.9525 111.474 67.2068 112.447 66.9574 112.839C66.7081 113.232 65.5256 113.659 65.3824 113.765C65.2417 113.874 65.3824 114.118 65.3824 114.118C65.3824 114.118 66.4884 114.123 66.6686 114.118C66.8463 114.116 67.0611 113.837 67.0611 113.837L67.2759 114.118L67.9672 114.12C67.9672 114.12 68.5029 114.017 68.5029 113.481C68.5029 112.945 68.3227 111.484 68.9201 111.126C69.6212 110.709 69.2484 108.381 69.5027 107.739C69.757 107.097 69.4928 106.346 69.7471 105.919C70.0014 105.492 69.7471 104.038 70.0631 103.349C70.2952 102.846 70.6458 101.831 70.9198 101.006C71.0358 101.651 71.2284 102.483 71.4629 102.732C71.5863 102.865 71.7616 103.172 71.9443 103.539C72.1344 104.46 72.4233 105.769 72.559 106.04C72.7738 106.47 73.27 106.739 73.3688 106.929C73.3688 106.929 73.5786 108.388 73.7416 108.603C73.902 108.815 74.4106 109.699 74.8648 109.884C75.2376 110.701 75.6598 111.634 75.6598 111.634C75.6598 111.634 75.882 112.429 75.6129 112.832C75.403 113.145 74.223 113.619 74.5834 113.962C74.9414 114.311 76.5337 113.97 76.5337 113.97C76.5337 113.97 77.6373 113.153 77.6373 112.698C77.6373 112.698 77.1657 111.264 76.7485 110.163C76.6004 109.778 76.4819 109.447 76.3831 109.151C76.4325 108.887 76.6917 107.45 76.472 106.929C76.2671 106.435 75.5882 104.811 75.5882 104.811C75.5882 104.811 75.3463 103.221 75.2673 102.875C75.1018 102.162 74.7612 101.372 74.46 100.762C74.4057 100.49 74.3513 100.249 74.2946 100.076C74.3464 99.8906 74.3637 99.6931 74.3637 99.6931C74.3637 99.6931 74.4797 99.6412 74.5316 99.5425C74.5809 99.4413 74.4797 99.2413 74.4797 99.2413C74.5488 99.2092 74.7068 99.0438 74.7068 99.0438C74.7068 99.0438 74.8451 98.8759 74.8352 98.5945C74.8179 98.1279 74.6896 97.3255 74.6896 97.3255C74.5168 97.1577 74.1588 97.2268 74.1588 97.2268C74.0872 96.9824 74.023 96.7997 73.9662 96.659C74.1637 96.5874 74.4032 96.4911 74.4723 96.4368C74.5958 96.3356 74.5044 95.985 74.5044 95.985C74.5044 95.985 74.8723 96.0862 75.087 95.985C75.3018 95.8863 75.4228 95.1629 75.4549 95.0617C75.4845 94.9629 75.3932 94.6371 75.2722 94.4618C75.1488 94.2865 74.8105 94.1112 74.8105 94.1112C74.8105 94.1112 74.9636 94.0372 75.1167 93.936C75.2722 93.8372 75.2722 93.2867 75.2722 93.2867C75.3635 93.3879 75.5462 93.4126 75.5462 93.4126C75.6079 93.1385 75.761 91.8869 75.761 91.8869C75.761 91.8869 75.6376 91.3882 75.5833 91.2376C75.5265 91.087 75.3339 90.9883 75.3339 90.9883L75.4845 90.7389C75.6697 90.5883 75.5462 90.1884 75.4845 89.7884C75.4228 89.3885 75.1167 89.7884 75.1167 89.7884C75.1167 89.7884 75.3635 89.0379 75.1167 88.5886C74.8723 88.1393 73.828 86.9395 73.4601 86.9889C73.0923 87.0407 72.6627 87.49 72.6627 87.49C72.3196 87.4086 71.6678 87.4579 71.416 87.4802L71.3938 87.4752L71.3395 87.4826C71.3 87.4086 71.2679 87.337 71.2728 87.2876C71.2827 87.1642 70.9445 87.2679 70.9445 87.2679C70.9445 87.2679 70.7618 87.1148 70.7124 86.937C70.6951 86.8803 70.6853 86.8185 70.6778 86.7568C70.7371 86.7223 70.7149 86.6828 70.7075 86.6235C70.7001 86.5643 70.7075 86.4408 70.7494 86.347C70.7791 86.2804 70.821 86.1051 70.8383 86.0236C70.9272 86.0285 71.0432 86.0285 71.1123 86.0137C71.2383 85.989 71.3123 85.8384 71.2506 85.6385C71.1864 85.4385 71.1889 85.1151 71.1889 85.1151C71.1889 85.1151 71.4012 84.1844 71.0383 83.4635C70.6137 82.6217 69.5373 82.513 68.9374 82.6636C68.4288 82.7895 67.9548 83.1895 67.824 83.3055C67.7252 83.2413 67.6289 83.1919 67.5648 83.1919C67.3648 83.1919 67.1574 83.4166 67.0488 83.5672C66.9402 83.7153 66.9229 84.3819 67.0488 84.5152C67.0858 84.5547 67.1426 84.5893 67.2068 84.6164C67.113 84.7078 67.0093 84.7942 67.0636 84.9151C67.1377 85.0879 67.5376 85.1645 67.5376 85.1645C67.5376 85.1645 67.624 85.4657 67.3055 86.2409C67.2512 86.3791 67.5524 86.4285 67.5524 86.4285C67.5524 86.4285 67.666 86.9642 67.6907 87.1148C67.7153 87.2629 67.7993 87.5221 67.9918 87.5369C68.0215 87.5369 68.0733 87.5345 68.135 87.5271L68.1819 87.6135L68.5745 87.5197L68.5769 87.4974C68.6387 87.5024 68.688 87.5147 68.7127 87.5369C68.8139 87.6382 68.8263 87.9245 68.7991 88.048C68.7744 88.1739 68.6633 88.1369 68.6115 88.2628C68.5843 88.3368 68.6387 88.5738 68.6905 88.7565C68.5671 88.7343 68.4362 88.7368 68.3893 88.833C68.335 88.9441 68.2708 89.2354 68.2116 89.5045C67.7919 90.0032 67.3327 90.5587 67.2018 90.7389C66.9525 91.087 66.8019 92.1881 66.7427 92.3362C66.6785 92.4868 66.9599 92.788 66.9599 92.788L66.7427 92.988C66.4291 93.1385 66.3032 94.2865 66.3032 94.2865C66.3032 94.4865 66.4538 95.3851 66.7427 95.5851L66.8217 95.6295C66.6661 95.8097 66.56 95.9356 66.555 95.9356C66.5378 95.9406 66.1205 95.9924 66.3032 96.7602C66.4193 97.249 66.6414 97.5033 66.8315 97.5428L66.3452 98.2316C66.3452 98.2316 65.8687 97.8588 65.9206 97.8316C65.9724 97.8069 66.2563 97.3626 66.2563 97.3626C66.2563 97.3626 66.0119 97.0244 65.8885 97.0639C65.7255 97.1132 64.8516 98.5081 64.9232 98.597C65.1997 98.9426 65.4638 99.2833 65.4638 99.2833L63.7974 101.833L64.1653 102.221Z" fill="#040606"/>
<path d="M91.3808 106.806C91.366 106.26 91.324 105.687 91.2376 105.161C91.0821 104.221 90.9808 103.448 90.9265 102.779C91.0031 102.572 91.0919 102.32 91.1833 102.048C91.4672 102.616 91.9535 103.579 92.4744 103.875C92.8867 105.193 93.3508 106.707 93.3508 106.707C93.3508 106.707 93.5385 107.963 93.0497 108.529C92.8349 108.773 92.156 109.035 91.677 109.324C91.6301 108.583 91.5412 107.615 91.3808 106.806ZM81.2219 83.2142C81.5058 84.3992 82.197 84.7003 82.4538 84.1918C82.713 83.6832 83.3919 83.2142 83.3919 83.2142C83.4413 83.5227 83.4931 83.7844 83.5376 83.9054C82.6463 84.7053 83.6042 84.962 83.2956 85.3718C82.987 85.7841 82.4735 86.8111 82.239 87.3271C82.002 87.8406 82.4735 88.5615 82.7821 88.8701C82.9401 89.0281 83.9745 89.3786 84.9818 89.6823C84.9793 90.6081 85.0361 91.64 85.2756 92.0301C85.4212 92.2646 85.5916 92.783 85.757 93.3977C85.7644 94.8469 85.794 96.9157 85.9174 97.3675C86.11 98.081 86.7766 98.6438 86.8654 98.9574H86.8679C86.8654 98.9598 86.7395 101.231 86.9148 101.606C87.0851 101.962 87.5468 103.334 88.1393 103.826C88.3886 105.149 88.6701 106.677 88.6701 106.677C88.6701 106.677 88.9787 108.05 88.4479 108.576L88.3541 108.652L88.2825 108.694C88.2825 108.694 86.6926 109.341 86.5149 109.393C86.5149 109.393 86.3643 109.689 86.4655 110.119C86.4655 110.119 86.3124 110.449 86.4408 110.486C86.4408 110.486 87.5271 110.519 88.5466 110.546C89.0725 110.585 89.4922 110.58 89.4922 110.58L89.5169 110.57C89.86 110.578 90.1266 110.583 90.2377 110.58C90.2377 110.58 90.5315 110.242 90.6081 110.294C90.6821 110.343 90.5932 110.58 90.5932 110.58L91.7313 110.486C91.7313 110.486 91.7289 110.427 91.7264 110.328C92.6102 110.588 94.2396 110.449 94.2396 110.449C94.2396 110.449 96.0862 109.41 96.1751 108.716C96.1751 108.716 95.7332 106.43 95.3036 104.665C95.153 104.045 95.0345 103.515 94.9407 103.043C95.0691 102.648 95.7406 100.5 95.5061 99.656C95.2863 98.8611 94.563 96.2442 94.563 96.2442C94.563 96.2442 94.5013 93.7656 94.447 93.2175C94.4099 92.8497 94.3433 92.4646 94.2593 92.077C95.9603 91.6079 95.3826 88.5442 95.3826 88.5442C95.3826 88.5442 96.9676 88.3615 97.5082 88.206C98.7179 88.206 98.7179 87.1518 98.7179 87.1518H99.9029C99.9029 87.1518 100.152 86.5544 100.332 85.9668C100.821 85.8434 101.52 85.5471 101.624 84.846C101.752 83.9918 101.011 83.0957 100.673 82.7377C100.661 82.6365 100.644 82.5377 100.626 82.4488L101.1 81.9255C101.1 81.7576 101.036 81.486 100.947 81.1997C101.179 80.7652 101.436 80.1727 101.557 79.5209C102.221 79.1382 102.915 78.6075 103.137 78.3013C103.497 77.815 102.419 76.4448 101.624 75.561C100.831 74.6747 99.066 70.3915 97.1478 70.0014C96.0862 69.7842 95.2518 70.3989 94.7506 71.0185C94.5778 70.9198 94.405 70.8358 94.247 70.7815C93.7779 70.626 93.2743 70.742 92.9089 70.8827C92.6645 70.6507 92.4695 70.4581 92.3806 70.352C92.0128 69.9125 91.3981 69.8385 90.9487 69.6187C90.5735 69.4361 89.6576 69.2015 89.3638 69.1299C89.27 68.9695 89.1762 68.8781 89.0799 68.8831L88.996 68.8954C88.9342 68.7843 88.8849 68.6707 88.8923 68.5967C88.9071 68.4041 88.3837 68.5621 88.3837 68.5621C88.3837 68.5621 88.1047 68.3251 88.0282 68.056C88.0035 67.9647 87.9838 67.8684 87.9739 67.7746C88.0652 67.7227 88.0331 67.6586 88.0208 67.5697C88.006 67.4783 88.0208 67.2858 88.085 67.1451C88.1344 67.0389 88.1961 66.7698 88.2232 66.6464C88.3615 66.6488 88.5368 66.6488 88.6454 66.6291C88.838 66.5896 88.954 66.36 88.8552 66.0489C88.759 65.7428 88.7614 65.2392 88.7614 65.2392C88.7614 65.2392 89.0898 63.8048 88.5294 62.6964C87.8727 61.3929 86.2137 61.225 85.2879 61.4571C84.5004 61.6521 83.7721 62.2693 83.5696 62.4495C83.4166 62.3483 83.2709 62.2717 83.1697 62.2717C82.8611 62.2717 82.5402 62.6198 82.3723 62.8494C82.2069 63.0815 82.1797 64.1085 82.3723 64.3159C82.4316 64.3776 82.5204 64.4294 82.6167 64.4739C82.4735 64.6146 82.3155 64.7454 82.3945 64.9306C82.5106 65.2022 83.1277 65.3182 83.1277 65.3182C83.1277 65.3182 83.2611 65.7823 82.7722 66.9772C82.6834 67.192 83.15 67.266 83.15 67.266C83.15 67.266 83.3252 68.0955 83.3647 68.3276C83.4018 68.5597 83.5301 68.9571 83.8264 68.9769C83.8733 68.9818 83.9548 68.9744 84.0486 68.9621C84.0683 69.0238 84.0955 69.0806 84.1226 69.1003C84.1868 69.1373 84.7151 68.9843 84.7275 68.9497L84.73 68.9176C84.8262 68.925 84.9028 68.9423 84.9423 68.9818C85.0953 69.1349 85.1151 69.5768 85.0756 69.7693C85.0361 69.9619 84.8633 69.9076 84.7867 70.1002C84.7423 70.2137 84.8287 70.5766 84.9077 70.8605C84.7176 70.8284 84.5177 70.8334 84.4436 70.979C84.3572 71.1494 84.2584 71.6012 84.1671 72.0134C83.5227 72.7837 82.8093 73.6428 82.6118 73.9193C82.2266 74.46 81.9946 76.156 81.8983 76.3881C81.8045 76.6201 82.239 77.0818 82.239 77.0818L81.8983 77.3904C81.4169 77.6224 81.2219 79.3975 81.2219 79.3975C81.2219 79.7061 81.4539 81.0935 81.8983 81.4021L82.0242 81.4687C81.7823 81.7477 81.6193 81.9403 81.6119 81.9403C81.5872 81.9452 80.938 82.0292 81.2219 83.2142Z" fill="#040606"/>
<mask id="mask2_2_312" style="mask-type:luminance" maskUnits="userSpaceOnUse" x="101" y="20" width="33" height="92">
<path d="M101.752 20.8659H133.984V111.864H101.752V20.8659Z" fill="white"/>
</mask>
<g mask="url(#mask2_2_312)">
<path d="M106.406 39.9888L107.855 40.0382L107.995 35.8018L108.018 35.1698L108.363 35.1797L108.191 40.4283L107.662 40.411L107.675 40.0308L106.406 39.9888ZM107.879 30.5458L107.983 30.3854L107.956 31.2223L108.726 31.2494L108.635 33.9873L108.055 33.9675L108.037 34.5378L107.746 34.5279L107.879 30.5458ZM109.279 21.8978L109.237 23.1223L109.85 23.1421L109.462 34.8686L109.489 34.0144L109.215 34.007L109.306 31.2667L109.398 28.4869L109.062 28.4746L109.279 21.8978ZM133.392 60.1042C133.55 58.9686 134.125 58.8279 133.394 57.1911C132.666 55.5543 132.411 53.9817 131.908 53.1892L131.839 53.0658C131.826 52.1993 131.303 50.3526 131.303 50.3526L129.767 48.1159L129.562 48.0913C129.498 47.8246 129.427 47.5432 129.328 47.2445C129.074 46.4816 128.222 45.2892 128.064 44.8967C127.903 44.5042 124.381 43.7191 124.361 43.7166C124.018 43.6129 123.657 43.5043 123.299 43.3932C123.141 43.0254 122.939 42.5859 122.808 42.4477C122.566 42.1959 121.86 42.1514 121.26 41.9613C120.658 41.7762 120.623 39.4013 120.623 39.1494C120.623 39.1494 121.28 38.4952 121.49 38.2237C121.998 37.562 122.196 35.113 122.196 35.113C122.196 35.113 123.615 34.8316 123.615 34.4563C123.615 34.0786 122.951 32.4246 122.761 32.1258C122.43 31.6099 122.272 31.2001 122.196 31.0668C121.924 30.5977 121.216 27.8203 117.88 28.0302C117.88 28.0302 114.217 27.9611 113.76 30.7359C113.76 30.7359 113.237 32.4937 112.975 33.2491C112.713 33.9996 112.454 34.2465 112.975 34.5033C113.854 34.9378 113.967 35.0661 113.967 35.0661C113.967 35.0661 114.148 36.9029 114.357 37.4658C114.451 37.7176 114.868 38.3298 114.868 38.3298C114.868 38.3298 115.412 38.7396 115.555 39.0211C115.703 39.3074 115.866 40.7788 115.444 41.8453C115.444 41.8453 114.851 42.3958 114.37 42.46C113.888 42.5218 113.501 42.5119 113.442 42.8871C113.434 42.934 113.422 42.9834 113.407 43.0353C113.284 43.1982 113.126 43.3587 112.94 43.4204H112.935C112.506 43.5562 112.313 42.2058 112.062 42.6008C111.881 42.8723 111.543 43.5142 111.407 43.9166C111.195 43.9857 111.005 44.0474 110.839 44.1018L110.835 43.1093L110.486 43.097L110.501 42.5909L108.121 42.5143L108.104 43.018L108.109 43.1143H108.102L108.134 42.1638L108.121 42.5143L110.852 42.6032L110.41 34.9007L109.842 34.881L110.274 21.7645L109.896 21.7546L109.906 21.4164L109.294 21.3942L109.311 20.8906L108.637 20.8683L108.62 21.3744L106.934 21.3177L106.919 21.7373L108.413 22.5471L108.583 22.5545L108.386 28.4523L108.05 28.4425L108.028 29.0819C107.84 29.5386 107.512 30.1212 107.013 30.3903L106.855 35.1303L106.848 35.4488L106.216 35.4266L106.062 39.9765L106.346 39.9863L106.334 40.3665L107.65 40.4085L106.05 40.3567L105.904 44.7486L106.788 44.7782L106.317 44.7634L106.307 45.0473L106.393 45.0498L105.769 45.03L105.685 47.5901L105.969 47.6L105.927 48.8319L106.181 48.8393L106.176 48.9677C105.719 49.7231 105.28 50.4538 105.028 50.8735C104.349 52.0067 103.949 53.3275 103.725 54.51C103.497 55.6925 102.362 57.391 102.362 58.6402C102.362 59.8845 102.702 61.8126 103.838 62.8346C104.779 63.6814 106.551 63.5876 107.8 63.3383C107.442 63.9283 106.771 64.1628 106.771 64.1628L106.813 67.1253C106.601 67.6462 106.487 68.0758 106.741 68.0758L106.828 68.0585L106.904 73.1096L107.075 73.1589C107.087 73.5539 107.129 73.9662 107.21 74.4526C107.381 75.4746 107.208 75.8252 107.719 76.0745C108.232 76.3239 108.526 76.4918 108.847 76.6621C109.168 76.8324 108.171 77.1163 108.847 77.3435C109.035 77.4077 109.218 77.4324 109.388 77.4398C109.195 78.2767 108.383 81.7699 108.104 82.2193C108.104 82.2193 107.973 83.3376 108.302 82.8982C108.363 82.8142 108.465 82.7377 108.583 82.6686C108.43 83.3845 108.299 83.9992 108.203 84.3152C107.916 85.2509 108.232 86.8654 108.744 87.179C108.435 88.5393 108.548 93.6125 108.094 94.7457C108.094 94.7457 107.645 96.0023 107.677 96.7972C107.712 97.5897 107.983 98.4982 107.677 99.0635C107.371 99.6313 107.756 100.083 107.677 100.765C107.625 101.206 108.023 101.456 108.437 101.609C108.667 102.075 108.934 102.735 108.995 103.362C109.104 104.495 108.694 105.969 108.094 107.329C108.094 107.329 106.956 109.05 105.823 109.617C104.687 110.185 104.574 111.205 104.687 111.657C104.801 112.111 112.4 111.296 112.4 111.296C112.4 111.296 113.326 110.277 112.906 109.255C112.906 109.255 112.513 107.191 112.513 106.238C112.513 105.616 112.866 103.369 113.108 101.883C113.311 101.893 113.409 101.777 113.841 101.219C114.631 100.197 114.404 98.1575 114.404 97.3626C114.404 96.5701 114.36 93.894 114.896 92.6473C115.434 91.4005 115.804 89.7563 116.142 88.3961C116.992 88.0035 116.399 86.6951 116.569 85.8458C116.668 85.357 117.325 83.0488 117.868 81.17C118.396 81.1824 118.88 81.0713 119.251 80.9627C119.544 82.3871 119.828 83.9795 119.971 84.3152C120.112 84.6436 120.507 84.9423 120.838 85.1472C120.865 86.2359 120.611 87.2777 120.754 88.0702C120.981 89.3169 121.549 90.6747 121.662 91.8079C121.776 92.9435 121.208 97.8168 121.662 98.7228C122.117 99.6313 121.89 101.192 122.228 101.885C122.396 102.224 122.801 102.147 123.28 102.024C123.242 104.006 123.104 107.033 122.608 108.349C121.845 110.39 122.304 110.78 122.815 111.284C123.326 111.785 128.733 111.425 128.733 111.425C128.733 111.425 131.059 111.55 128.733 108.008C127.733 106.485 127.35 104.105 127.205 102.364C127.274 102.345 127.341 102.327 127.407 102.295C128.15 101.952 128.605 102.179 128.718 101.614C128.832 101.046 128.224 95.3234 128.064 93.6224C127.901 91.9214 128.224 89.6551 128.064 88.522C128.015 88.1862 127.945 87.6925 127.869 87.1222C128.79 86.7 128.064 85.9323 128.064 85.9323C128.064 85.9323 128.563 85.4212 128.733 84.6559C128.889 83.9548 128.402 82.1872 128.133 81.4367C128.558 81.6169 129.074 81.7033 128.916 81.2959C128.772 80.933 128.128 78.2791 127.775 76.8078C127.955 76.667 128.123 76.5041 128.252 76.3264C128.726 75.6524 128.237 73.9662 128.237 73.9662C128.237 73.9662 129.005 74.3044 128.906 73.9662C128.81 73.6305 128.237 71.6925 128.237 71.6925C128.237 71.6925 128.029 71.4382 128.252 71.1864C128.471 70.9346 127.805 70.3989 127.805 70.3989C127.805 70.3989 127.81 69.5027 127.805 69.2484C127.797 68.9966 127.61 68.5769 126.694 68.2387L126.62 68.2239C126.563 67.8092 126.484 67.4018 126.43 67.0562L126.422 67.0142C126.842 67.2068 127.311 67.3623 127.785 67.4389C127.723 67.898 127.617 68.4436 127.787 68.7917C128.113 69.4583 128.79 70.0878 128.642 70.7198C128.494 71.3518 128.597 72.2381 128.797 72.996C128.901 73.3811 129.133 73.628 129.422 73.7737C129.316 74.0971 129.197 74.4254 129.103 74.6377C128.859 75.1907 128.807 76.2054 128.834 76.6325C128.861 77.062 129.214 78.2125 129.442 78.4149C129.671 78.6173 130.009 77.9928 129.948 77.2151C129.881 76.435 130.296 76.2893 130.387 75.84C130.478 75.3907 130.836 74.7019 131.105 75.2401C131.372 75.7783 131.347 77.104 131.347 77.104C131.347 77.104 131.12 77.6496 130.762 78.3384C130.402 79.0296 130.357 79.5333 130.552 79.8986C130.745 80.264 131.165 79.5308 131.478 79.1605C131.797 78.7902 133.117 77.1262 133.13 76.3634C133.142 75.6005 132.959 75.5512 133.016 74.6476C133.043 74.1736 133.001 73.7885 132.925 73.4552L133.043 73.3737C133.804 72.7417 132.794 70.4038 133.043 68.7917C133.298 67.1821 133.493 65.3058 133.332 64.4122C133.172 63.516 133.359 61.4028 133.392 61.3238C133.424 61.2423 133.231 61.2423 133.392 60.1042Z" fill="#040606"/>
</g>
<path d="M148.557 89.8995L148.893 89.786L148.858 89.6773L149.942 89.3144L150.604 89.0923L150.757 89.0404L151.043 88.9466L150.999 88.8133L153.648 87.927L153.114 88.1048L153.196 88.3442L148.557 89.8995ZM148.229 89.3786L148.276 89.5144L146.984 89.9464C146.972 89.8971 146.962 89.8477 146.95 89.8057L148.105 89.4181L148.229 89.3786ZM150.016 88.6528L150.095 88.6701L149.762 88.7812L149.865 89.0848L148.782 89.4478L148.705 89.2182L148.478 89.2947L148.441 89.1787L150.016 88.6528ZM153.798 87.8752L153.998 87.8085L153.909 87.5394L153.709 87.6085L153.487 86.9395L153.319 86.9963L153.22 87.6974L153.243 87.7641L150.907 88.5467L150.863 88.4133L150.611 88.4973C150.404 88.4899 150.13 88.4479 149.952 88.2924L148.076 88.9194L147.95 88.9614L147.866 88.7121L146.575 89.1441L146.259 88.6849L146.172 88.675C146.148 88.5639 146.118 88.4479 146.076 88.322C145.97 88.0035 145.617 87.5073 145.548 87.3444C145.481 87.179 144.402 87.0778 144.402 87.0778L144.405 87.0901L144.306 87.0778C144.234 87.0778 143.95 86.9765 143.617 86.8457C143.553 86.6877 143.429 86.3988 143.358 86.3223C143.257 86.2186 142.963 86.1989 142.711 86.1199C142.462 86.0409 142.447 85.0534 142.447 84.9472C142.447 84.9472 142.721 84.6757 142.807 84.5621C143.022 84.2856 143.104 83.266 143.104 83.266C143.104 83.266 143.696 83.1475 143.696 82.9895C143.696 82.834 143.417 82.1452 143.338 82.0193C143.202 81.8045 143.133 81.6342 143.104 81.5774C142.99 81.3823 142.694 80.2245 141.304 80.3109C141.304 80.3109 139.776 80.2838 139.586 81.4416C139.586 81.4416 139.366 82.1723 139.26 82.4859C139.151 82.8019 139.042 82.9031 139.26 83.0093C139.625 83.1919 139.672 83.2463 139.672 83.2463C139.672 83.2463 139.746 84.0116 139.835 84.2461C139.874 84.3498 140.047 84.6065 140.047 84.6065C140.047 84.6065 140.274 84.7769 140.336 84.8929C140.395 85.0114 140.464 85.6261 140.289 86.0705C140.289 86.0705 140.04 86.3001 139.84 86.3273C139.64 86.3544 139.477 86.3495 139.452 86.505L139.44 86.5667C139.388 86.6358 139.321 86.7025 139.242 86.7272C139.062 86.7864 138.983 86.2211 138.877 86.3865C138.803 86.5001 138.662 86.7667 138.605 86.9346C138.396 87.0037 138.228 87.058 138.169 87.0778C138.06 87.1148 137.961 87.1419 137.88 87.179C137.88 87.179 137.139 87.1839 137.05 87.416C136.971 87.6209 136.838 88.1714 136.668 88.6405C136.408 89.07 136.095 89.5835 135.947 89.8353C135.663 90.3069 135.803 90.5982 135.71 91.0919C135.613 91.5832 135.142 92.2918 135.142 92.8127C135.142 93.0595 135.176 93.3681 135.26 93.6743L133.236 94.4618L133.443 97.0614C133.443 97.0614 133.631 97.3971 133.927 97.2737C134.09 97.207 135.882 96.1455 137.537 95.1629C137.532 95.274 137.512 95.3678 137.458 95.4123C137.28 95.553 137.075 95.6591 137.001 95.9085C136.927 96.1553 136.428 97.0071 136.66 97.0071C136.892 97.0071 136.961 96.6516 137.07 96.7577C137.174 96.8663 137.102 97.1848 137.05 97.3971C136.996 97.6094 136.961 97.7724 137.05 97.9748C137.139 98.1748 136.858 98.1748 136.821 98.5673C136.786 98.9549 136.786 99.2388 136.858 99.6659C136.927 100.091 136.855 100.236 137.07 100.34C137.28 100.444 137.403 100.515 137.537 100.587C137.67 100.658 137.255 100.774 137.537 100.871C137.643 100.905 137.739 100.915 137.83 100.913C137.813 100.987 137.798 101.063 137.774 101.135C137.648 101.508 137.653 101.774 137.685 101.987C137.509 102.633 137.356 103.49 137.27 103.776C137.149 104.166 137.28 104.84 137.495 104.969C137.366 105.537 137.413 107.652 137.225 108.124C137.225 108.124 137.035 108.65 137.05 108.981C137.065 109.311 137.179 109.689 137.05 109.924C136.922 110.161 137.082 110.351 137.05 110.635C137.028 110.817 137.196 110.923 137.369 110.985C137.462 111.18 137.574 111.457 137.601 111.716C137.645 112.187 137.475 112.802 137.225 113.37C137.225 113.37 136.749 114.088 136.277 114.323C135.803 114.56 135.757 114.987 135.803 115.175C135.85 115.365 139.018 115.024 139.018 115.024C139.018 115.024 139.405 114.599 139.23 114.175C139.23 114.175 139.067 113.313 139.067 112.916C139.067 112.656 139.213 111.718 139.314 111.101C139.398 111.104 139.44 111.054 139.62 110.822C139.948 110.398 139.855 109.546 139.855 109.215C139.855 108.884 139.835 107.768 140.06 107.25C140.284 106.729 140.437 106.045 140.58 105.477C140.934 105.314 140.684 104.769 140.756 104.413C140.827 104.06 141.607 101.401 141.607 101.401C141.78 101.629 142.069 103.53 142.175 103.776C142.235 103.912 142.4 104.038 142.536 104.124C142.548 104.576 142.442 105.011 142.504 105.342C142.595 105.86 142.834 106.428 142.879 106.902C142.926 107.373 142.691 109.405 142.879 109.783C143.069 110.161 142.975 110.812 143.116 111.101C143.185 111.242 143.355 111.21 143.555 111.158C143.538 111.985 143.481 113.247 143.274 113.795C142.955 114.646 143.148 114.809 143.36 115.019C143.575 115.229 145.829 115.078 145.829 115.078C145.829 115.078 146.797 115.13 145.829 113.654C145.412 113.019 145.251 112.027 145.19 111.301L145.276 111.274C145.587 111.131 145.775 111.225 145.822 110.988C145.869 110.753 145.617 108.366 145.548 107.655C145.481 106.946 145.617 106.003 145.548 105.529C145.528 105.391 145.501 105.184 145.466 104.947C145.851 104.771 145.548 104.45 145.548 104.45C145.548 104.45 145.757 104.236 145.829 103.917C145.898 103.599 145.651 102.749 145.548 102.5C145.446 102.253 145.439 101.614 145.333 101.33C145.279 101.189 145.19 101.066 145.113 100.977C145.079 100.518 145.032 100.071 144.963 99.7103C144.849 99.1104 144.901 98.3451 144.837 97.918L144.844 97.9032C145.079 97.6366 144.933 96.9997 144.866 96.58L144.864 96.5627C145.251 96.7429 145.735 96.8417 146.133 96.6886C146.861 96.4047 147.105 95.553 146.91 95.0197C146.866 94.8938 146.841 94.7852 146.829 94.684L146.91 95.0197C146.91 95.0197 147.318 93.1879 147.318 92.6349C147.318 92.1338 147.103 91.3215 147.108 90.9636L148.683 90.2748L148.606 90.0477L153.796 88.3121L153.749 88.1615L153.88 88.1146L153.798 87.8752Z" fill="#040606"/>
<mask id="mask3_2_312" style="mask-type:luminance" maskUnits="userSpaceOnUse" x="36" y="104" width="169" height="15">
<path d="M36.656 104.912H204.768V118.51H36.656V104.912Z" fill="white"/>
</mask>
<g mask="url(#mask3_2_312)">
<path d="M36.6906 118.51H204.746C204.746 118.51 190.78 113.108 187.173 113.108C183.569 113.108 182.668 115.36 179.063 113.108C175.459 110.857 167.801 110.405 164.197 109.504C164.197 109.504 161.794 108.153 159.691 109.504C157.588 110.857 156.385 111.155 155.183 111.457C153.983 111.755 153.383 111.755 152.482 112.057C151.579 112.358 151.28 114.459 150.379 113.708C149.478 112.958 146.473 113.558 144.972 113.708C143.469 113.859 139.265 111.755 135.362 110.556C131.456 109.356 129.953 109.055 129.051 108.904C128.15 108.756 124.847 106.652 123.946 106.354C123.045 106.053 122.593 105.151 120.717 106.354C118.841 107.554 115.236 108.455 114.335 108.756C114.335 108.756 111.931 108.455 108.929 107.252C105.924 106.053 103.821 105.739 101.419 105.746C99.0166 105.751 93.0077 104.238 91.2055 105.746C89.4033 107.252 82.1946 107.554 79.4913 109.055C76.788 110.556 77.0892 111.832 74.9858 111.795C74.9858 111.795 72.2825 110.254 69.5792 109.055C66.876 107.855 67.7771 106.351 65.375 106.652C62.9729 106.954 62.0718 107.554 59.3685 109.055C56.6652 110.556 53.3596 111.232 51.8586 111.795C50.3576 112.358 48.5529 114.459 46.452 114.757C44.3486 115.059 38.9421 116.261 36.6906 118.51Z" fill="#040606"/>
</g>
<path d="M50.6136 121.57C51.3369 121.57 52.0405 121.64 52.7269 121.778C53.4181 121.916 54.0328 122.151 54.5735 122.479C55.1117 122.802 55.5437 123.237 55.8671 123.782C56.1954 124.33 56.3609 125.004 56.3609 125.807C56.3609 126.612 56.1979 127.295 55.877 127.861C55.561 128.429 55.1314 128.885 54.5932 129.233C54.0526 129.584 53.4379 129.836 52.7466 129.994C52.0603 130.147 51.3493 130.221 50.6136 130.221H45.7452V133.411C45.7452 133.892 45.8267 134.215 45.9921 134.378C46.155 134.544 46.4982 134.625 47.0191 134.625H48.6781V135.889H40.6794V134.625H42.5359C42.6864 134.625 42.8247 134.62 42.9506 134.605C43.0814 134.586 43.1925 134.536 43.2864 134.457C43.3851 134.378 43.4592 134.26 43.5135 134.102C43.5727 133.944 43.6024 133.722 43.6024 133.43V124.049C43.6024 123.57 43.5184 123.254 43.3555 123.101C43.1901 122.943 42.8519 122.864 42.3384 122.864H40.6794V121.57H50.6136ZM50.5346 128.789C51.6134 128.789 52.48 128.53 53.1317 128.009C53.7835 127.483 54.1094 126.75 54.1094 125.807C54.1094 124.866 53.7736 124.165 53.1021 123.703C52.4355 123.237 51.5739 123.002 50.5149 123.002H45.7452V128.789H50.5346Z" fill="black"/>
<path d="M62.6118 121.57H67.8653C68.9565 123.605 70.0477 125.624 71.1339 127.624C72.2251 129.619 73.3188 131.631 74.4124 133.657C74.5507 133.934 74.7235 134.166 74.9358 134.349C75.1456 134.534 75.511 134.625 76.0319 134.625H77.602V135.889H69.2577V134.625H71.2623C71.3857 134.625 71.5042 134.613 71.6178 134.586C71.7363 134.554 71.8276 134.504 71.8943 134.438C71.9659 134.373 72.0079 134.284 72.0227 134.171C72.035 134.06 71.998 133.924 71.914 133.766L70.9167 131.761H62.8982L61.9403 133.657C61.7872 133.949 61.7774 134.181 61.9107 134.359C62.0489 134.536 62.2958 134.625 62.6513 134.625H64.5572V135.889H56.8843V134.625H58.6223C58.9901 134.625 59.274 134.546 59.4715 134.388C59.669 134.23 59.8567 133.988 60.0344 133.657C60.9355 131.998 61.8243 130.347 62.7007 128.7C63.582 127.056 64.4683 125.402 65.357 123.743C65.4755 123.513 65.4953 123.308 65.4163 123.131C65.3422 122.953 65.1719 122.864 64.9028 122.864H62.6118V121.57ZM70.1365 130.33C69.5638 129.303 69.0059 128.285 68.4677 127.278C67.9344 126.271 67.3864 125.259 66.8284 124.237L63.6585 130.33H70.1365Z" fill="black"/>
<path d="M78.1293 126.893L78.8601 121.57H94.3046L95.0551 126.893L93.8306 127.051C93.6923 126.13 93.5195 125.402 93.3171 124.869C93.1121 124.335 92.8677 123.935 92.5863 123.664C92.3098 123.387 91.9839 123.215 91.6087 123.141C91.2334 123.062 90.8014 123.022 90.3151 123.022H87.6587V133.411C87.6587 133.892 87.7377 134.215 87.8957 134.378C88.0586 134.544 88.4018 134.625 88.9227 134.625H90.5817V135.889H82.6027V134.625H84.4493C84.5925 134.625 84.7307 134.62 84.8641 134.605C84.9949 134.586 85.106 134.536 85.1998 134.457C85.2986 134.378 85.3726 134.26 85.4269 134.102C85.4788 133.944 85.5059 133.722 85.5059 133.43V123.022H82.8496C82.3681 123.022 81.9411 123.062 81.5658 123.141C81.1955 123.215 80.8671 123.387 80.5783 123.664C80.2944 123.935 80.0475 124.335 79.8377 124.869C79.6328 125.402 79.4649 126.13 79.3341 127.051L78.1293 126.893Z" fill="black"/>
<path d="M113.255 133.43C113.255 133.912 113.334 134.23 113.492 134.388C113.655 134.546 113.998 134.625 114.519 134.625H116.178V135.889H108.406V134.625H110.036C110.186 134.625 110.327 134.62 110.46 134.605C110.591 134.586 110.702 134.541 110.796 134.467C110.895 134.396 110.969 134.28 111.023 134.122C111.075 133.964 111.102 133.744 111.102 133.46V129.243H101.632V133.43C101.632 133.912 101.714 134.23 101.879 134.388C102.042 134.546 102.385 134.625 102.906 134.625H104.358V135.889H96.586V134.625H98.4425C98.5931 134.625 98.7314 134.62 98.8573 134.605C98.9881 134.586 99.0992 134.541 99.193 134.467C99.2918 134.396 99.3658 134.28 99.4202 134.122C99.4794 133.964 99.509 133.744 99.509 133.46V124.029C99.509 123.753 99.4794 123.54 99.4202 123.387C99.3658 123.229 99.2844 123.116 99.1733 123.042C99.0671 122.963 98.9363 122.913 98.7783 122.894C98.6252 122.874 98.4475 122.864 98.245 122.864H96.586V121.57H104.358V122.864H102.699C102.546 122.864 102.405 122.874 102.274 122.894C102.148 122.913 102.037 122.963 101.938 123.042C101.844 123.116 101.77 123.229 101.711 123.387C101.657 123.54 101.632 123.753 101.632 124.029V127.811H111.102V124.029C111.102 123.753 111.075 123.54 111.023 123.387C110.969 123.229 110.887 123.116 110.776 123.042C110.663 122.963 110.53 122.913 110.372 122.894C110.218 122.874 110.041 122.864 109.838 122.864H108.406V121.57H116.178V122.864H114.312C114.166 122.864 114.028 122.874 113.897 122.894C113.764 122.913 113.65 122.963 113.551 123.042C113.457 123.116 113.386 123.229 113.334 123.387C113.28 123.54 113.255 123.753 113.255 124.029V133.43Z" fill="black"/>
<path d="M126.839 132.719L130.068 125.007C129.974 124.79 129.885 124.56 129.801 124.316C129.722 124.074 129.609 123.842 129.465 123.624C129.327 123.402 129.139 123.22 128.902 123.081C128.67 122.938 128.359 122.864 127.964 122.864H127.085V121.57H134.324V122.864H132.714C132.371 122.864 132.114 122.95 131.944 123.121C131.771 123.294 131.761 123.553 131.914 123.901L135.696 132.719L139.439 123.822C139.696 123.185 139.471 122.864 138.768 122.864H136.289V121.57H144.406V122.864H142.688C142.318 122.864 142.036 122.943 141.839 123.101C141.641 123.254 141.454 123.494 141.276 123.822L136.062 135.889H134.778C134.131 134.403 133.497 132.927 132.872 131.465C132.245 129.999 131.603 128.52 130.947 127.031C130.334 128.52 129.722 129.999 129.11 131.465C128.498 132.927 127.878 134.403 127.253 135.889H125.96L120.607 123.822C120.533 123.684 120.454 123.56 120.37 123.447C120.291 123.328 120.193 123.227 120.074 123.141C119.961 123.049 119.82 122.98 119.65 122.933C119.477 122.889 119.264 122.864 119.008 122.864H117.329V121.57H125.081V122.864H123.728C123.405 122.864 123.15 122.933 122.968 123.071C122.782 123.205 122.773 123.454 122.938 123.822L126.839 132.719Z" fill="black"/>
<path d="M150.243 121.57H155.497C156.588 123.605 157.679 125.624 158.765 127.624C159.857 129.619 160.95 131.631 162.044 133.657C162.182 133.934 162.355 134.166 162.567 134.349C162.777 134.534 163.142 134.625 163.663 134.625H165.233V135.889H156.889V134.625H158.894C159.017 134.625 159.136 134.613 159.249 134.586C159.368 134.554 159.459 134.504 159.526 134.438C159.597 134.373 159.639 134.284 159.654 134.171C159.666 134.06 159.629 133.924 159.545 133.766L158.548 131.761H150.53L149.572 133.657C149.419 133.949 149.409 134.181 149.542 134.359C149.68 134.536 149.927 134.625 150.283 134.625H152.189V135.889H144.516V134.625H146.254C146.622 134.625 146.905 134.546 147.103 134.388C147.3 134.23 147.488 133.988 147.666 133.657C148.567 131.998 149.456 130.347 150.332 128.7C151.213 127.056 152.1 125.402 152.988 123.743C153.107 123.513 153.127 123.308 153.048 123.131C152.974 122.953 152.803 122.864 152.534 122.864H150.243V121.57ZM157.768 130.33C157.195 129.303 156.637 128.285 156.099 127.278C155.566 126.271 155.018 125.259 154.46 124.237L151.29 130.33H157.768Z" fill="black"/>
<path d="M176.228 133.43C176.228 133.912 176.31 134.23 176.475 134.388C176.638 134.546 176.979 134.625 177.492 134.625H179.151V135.889H171.172V134.625H173.019C173.169 134.625 173.308 134.62 173.434 134.605C173.564 134.586 173.676 134.541 173.769 134.467C173.868 134.396 173.942 134.28 173.997 134.122C174.048 133.964 174.076 133.744 174.076 133.46V130.063L168.97 123.822C168.639 123.427 168.291 123.17 167.923 123.052C167.553 122.928 167.133 122.864 166.659 122.864H165.573V121.57H173.898V122.864H171.972C171.629 122.864 171.431 122.958 171.38 123.141C171.325 123.326 171.409 123.553 171.627 123.822C172.263 124.627 172.893 125.427 173.513 126.222C174.137 127.012 174.777 127.809 175.428 128.611L179.132 123.822C179.211 123.718 179.272 123.605 179.319 123.486C179.371 123.368 179.393 123.266 179.388 123.18C179.381 123.089 179.331 123.012 179.24 122.953C179.154 122.894 179.008 122.864 178.806 122.864H177.147V121.57H184.365V122.864H183.526C183.091 122.864 182.652 122.923 182.213 123.042C181.778 123.155 181.398 123.415 181.077 123.822L176.228 129.974V133.43Z" fill="black"/>
<path d="M200.592 126.587L199.447 126.745C199.301 126.16 199.032 125.627 198.637 125.145C198.242 124.659 197.751 124.237 197.165 123.881C196.585 123.526 195.934 123.249 195.21 123.052C194.492 122.854 193.739 122.755 192.949 122.755C191.487 122.755 190.364 122.99 189.581 123.457C188.796 123.918 188.406 124.518 188.406 125.254C188.406 125.715 188.577 126.088 188.92 126.37C189.26 126.646 189.695 126.871 190.223 127.041C190.757 127.214 191.342 127.342 191.981 127.426C192.625 127.505 193.248 127.584 193.847 127.663C194.341 127.737 194.86 127.819 195.408 127.91C195.961 127.997 196.504 128.105 197.037 128.236C197.57 128.362 198.076 128.527 198.558 128.73C199.044 128.935 199.469 129.189 199.832 129.49C200.192 129.786 200.483 130.149 200.701 130.576C200.918 130.999 201.027 131.49 201.027 132.048C201.027 132.739 200.871 133.346 200.562 133.865C200.259 134.386 199.824 134.823 199.259 135.178C198.691 135.529 198.005 135.79 197.195 135.968C196.39 136.146 195.492 136.235 194.499 136.235C193.556 136.235 192.724 136.141 192.001 135.958C191.282 135.776 190.66 135.578 190.134 135.366C189.606 135.156 189.177 134.958 188.841 134.773C188.51 134.591 188.278 134.497 188.14 134.497C188.034 134.497 187.962 134.541 187.922 134.625C187.888 134.704 187.873 134.813 187.873 134.951C187.873 135.084 187.883 135.237 187.903 135.415C187.922 135.593 187.942 135.785 187.962 135.988H186.649L185.809 130.31L186.915 130.162C187.118 130.774 187.451 131.354 187.913 131.9C188.379 132.448 188.932 132.924 189.572 133.332C190.208 133.741 190.924 134.067 191.714 134.309C192.509 134.546 193.349 134.665 194.233 134.665C195.758 134.665 196.941 134.455 197.778 134.033C198.62 133.606 199.042 133.065 199.042 132.413C199.042 131.934 198.869 131.542 198.528 131.238C198.185 130.929 197.733 130.683 197.175 130.497C196.622 130.315 195.99 130.172 195.279 130.073C194.568 129.969 193.85 129.875 193.127 129.796C192.282 129.685 191.458 129.544 190.648 129.372C189.838 129.201 189.117 128.964 188.485 128.661C187.858 128.352 187.355 127.95 186.974 127.456C186.592 126.957 186.402 126.318 186.402 125.54C186.402 124.844 186.565 124.232 186.895 123.703C187.224 123.17 187.671 122.723 188.238 122.36C188.811 122 189.483 121.726 190.253 121.541C191.028 121.358 191.865 121.264 192.761 121.264C193.536 121.264 194.242 121.341 194.874 121.491C195.511 121.644 196.064 121.807 196.533 121.985C197.007 122.163 197.397 122.328 197.709 122.479C198.025 122.625 198.252 122.696 198.39 122.696C198.494 122.696 198.57 122.664 198.617 122.597C198.669 122.526 198.699 122.434 198.706 122.321C198.711 122.202 198.708 122.074 198.696 121.936C198.681 121.793 198.669 121.637 198.657 121.472H199.94L200.592 126.587Z" fill="black"/>
</svg>
